Coordinates
version=1
nRows=8
nColumns=40
inDegrees=yes

Units are S.I. units (second, meters, Newtons, ...)
If the header above contains a line with 'inDegrees', this indicates whether rotational values are in degrees (yes) or radians (no).

endheader
time	pelvis_tilt	pelvis_list	pelvis_rotation	pelvis_tx	pelvis_ty	pelvis_tz	hip_flexion_r	hip_adduction_r	hip_rotation_r	knee_angle_r	knee_angle_r_beta	ankle_angle_r	subtalar_angle_r	mtp_angle_r	hip_flexion_l	hip_adduction_l	hip_rotation_l	knee_angle_l	knee_angle_l_beta	ankle_angle_l	subtalar_angle_l	mtp_angle_l	lumbar_extension	lumbar_bending	lumbar_rotation	arm_flex_r	arm_add_r	arm_rot_r	elbow_flex_r	pro_sup_r	wrist_flex_r	wrist_dev_r	arm_flex_l	arm_add_l	arm_rot_l	elbow_flex_l	pro_sup_l	wrist_flex_l	wrist_dev_l
      0.57000000	      2.14633367	      7.21228909	    -86.10602230	      0.23043173	      0.90510228	     -0.65249199	     34.34281872	     -2.74909594	     -8.12614799	      1.09844097	      0.01917141	      3.79527356	     -0.00000000	      0.00000000	    -10.52242469	      6.59298444	      3.39361088	     -1.34852881	     -0.02353627	      7.11765067	      0.00000000	     -0.00000000	      0.85047004	     -2.15386748	    -11.31892761	     -0.00000000	      0.00000000	     -0.00000000	      0.00000000	      0.00000000	      0.00000000	     -0.00000000	      0.00000000	     -0.00000000	      0.00000000	      0.00000000	      0.00000000	     -0.00000000	      0.00000000
      0.58000000	      2.03259556	      7.21698223	    -85.96132113	      0.23035043	      0.90276939	     -0.63798654	     34.52809601	     -2.50397126	     -8.62727335	      0.82111629	      0.01433118	      3.93957735	      0.00000000	      0.00000000	    -11.42563525	      6.32738886	      3.61698331	     -1.13683299	     -0.01984148	      7.57170082	      0.00000000	      0.00000000	      0.96555338	     -1.99429125	    -11.43134157	      0.00000000	      0.00000000	      0.00000000	      0.00000000	      0.00000000	      0.00000000	      0.00000000	      0.00000000	      0.00000000	      0.00000000	      0.00000000	      0.00000000	      0.00000000	      0.00000000
      0.59000000	      1.86192869	      7.19377802	    -85.82303643	      0.23020381	      0.90069244	     -0.62337169	     34.66894895	     -2.22919652	     -9.21237644	      0.91153668	      0.01590932	      3.88491774	      0.00000000	      0.00000000	    -12.21025790	      5.99527596	      3.64161854	     -0.66281741	     -0.01156835	      7.87642904	      0.00000000	      0.00000000	      1.05648078	     -1.77468655	    -11.53760340	      0.00000000	      0.00000000	      0.00000000	      0.00000000	      0.00000000	      0.00000000	      0.00000000	      0.00000000	      0.00000000	      0.00000000	      0.00000000	      0.00000000	      0.00000000	      0.00000000
      0.60000000	      1.63658497	      7.27280762	    -85.74064503	      0.22993036	      0.89868459	     -0.60869510	     34.92072370	     -1.90743868	     -9.66156424	      1.36195876	      0.02377066	      3.63949660	      0.00000000	      0.00000000	    -12.76770237	      5.61338107	      3.58576070	      0.00710012	      0.00012392	      8.06696023	     -0.00000000	      0.00000000	      1.28368709	     -1.51265373	    -11.54079324	      0.00000000	      0.00000000	     -0.00000000	      0.00000000	      0.00000000	     -0.00000000	     -0.00000000	     -0.00000000	     -0.00000000	     -0.00000000	      0.00000000	      0.00000000	      0.00000000	      0.00000000
      0.61000000	      1.34725260	      7.26667014	    -85.62674066	      0.22968755	      0.89704288	     -0.59389813	     35.05622311	     -1.57923196	    -10.14116805	      2.11498765	      0.03691350	      3.20641760	     -0.00000000	     -0.00000000	    -13.25910448	      5.14609370	      3.42161053	      0.94213142	      0.01644330	      8.12500172	      0.00000000	     -0.00000000	      1.41682038	     -1.14377692	    -11.58800432	      0.00000000	     -0.00000000	     -0.00000000	      0.00000000	      0.00000000	      0.00000000	     -0.00000000	     -0.00000000	      0.00000000	      0.00000000	      0.00000000	      0.00000000	      0.00000000	     -0.00000000
      0.62000000	      0.99168814	      7.20039446	    -85.54397605	      0.22932257	      0.89575205	     -0.57896562	     35.11416931	     -1.20229022	    -10.74164117	      3.12896746	      0.05461078	      2.62037064	      0.00000000	      0.00000000	    -13.64845497	      4.59188559	      3.02576869	      2.14505926	      0.03743835	      8.10382195	      0.00000000	      0.00000000	      1.50212735	     -0.71580818	    -11.60078613	      0.00000000	      0.00000000	      0.00000000	      0.00000000	      0.00000000	      0.00000000	      0.00000000	      0.00000000	      0.00000000	      0.00000000	      0.00000000	      0.00000000	      0.00000000	      0.00000000
      0.63000000	      0.63010288	      7.14314662	    -85.46752769	      0.22892945	      0.89468502	     -0.56388315	     35.17433386	     -0.85408503	    -11.14896090	      4.39697019	      0.07674161	      1.88730098	      0.00000000	     -0.00000000	    -13.86935663	      4.01801463	      2.57626830	      3.61989491	      0.06317908	      7.79557958	      0.00000000	      0.00000000	      1.61850616	     -0.27456684	    -11.58732863	      0.00000000	      0.00000000	     -0.00000000	      0.00000000	      0.00000000	      0.00000000	      0.00000000	      0.00000000	     -0.00000000	     -0.00000000	      0.00000000	      0.00000000	     -0.00000000	      0.00000000
      0.64000000	      0.26465658	      7.06278221	    -85.41458318	      0.22849851	      0.89392286	     -0.54872229	     35.21714353	     -0.51899634	    -11.45616368	      5.88466282	      0.10270674	      1.05233359	      0.00000000	      0.00000000	    -13.93310317	      3.41938884	      2.03878019	      5.37795191	      0.09386297	      7.21229001	      0.00000000	      0.00000000	      1.71251087	      0.17284176	    -11.54750850	      0.00000000	      0.00000000	      0.00000000	      0.00000000	      0.00000000	      0.00000000	      0.00000000	      0.00000000	      0.00000000	      0.00000000	      0.00000000	      0.00000000	      0.00000000	      0.00000000
